<svg xmlns="http://www.w3.org/2000/svg" width="161" height="160" viewBox="0 0 161 160">
    <g fill="none" fill-rule="evenodd">
        <path fill="#C1C7D4" d="M80.063 0c22.125 0 41 7.812 56.624 23.438 15.626 15.625 23.438 34.437 23.438 56.437s-7.812 40.812-23.438 56.438c-15.625 15.625-34.5 23.437-56.625 23.437s-41-7.812-56.624-23.438C7.812 120.688 0 101.876 0 79.876s7.812-40.812 23.438-56.438C39.063 7.813 57.938 0 80.061 0z"/>
        <path fill="#2C3644" d="M56.313 78.125c2.75 0 5.124.937 7.124 2.813 2 1.875 3 4.187 3 6.937s-1 5.125-3 7.125-4.374 3-7.124 3-5.063-1-6.938-3-2.813-4.375-2.813-7.125.938-5.062 2.813-6.938c1.875-1.875 4.187-2.812 6.938-2.812zm48 0c2.75 0 5.124.937 7.124 2.813 2 1.875 3 4.187 3 6.937s-1 5.125-3 7.125-4.374 3-7.124 3-5.063-1-6.938-3-2.813-4.375-2.813-7.125.938-5.062 2.813-6.938c1.875-1.875 4.187-2.812 6.938-2.812zM80.5.125c22.125 0 41 7.812 56.625 23.438C152.75 39.188 160.563 58 160.563 80s-7.813 40.812-23.438 56.438c-15.625 15.625-34.5 23.437-56.625 23.437s-41-7.812-56.625-23.438C8.25 120.813.437 102 .437 80S8.25 39.188 23.875 23.562C39.5 7.938 58.375.125 80.5.125zm0 144c17.625 0 32.687-6.25 45.188-18.75 12.5-12.5 18.75-27.625 18.75-45.375 0-6-.875-12-2.625-18-6 1.25-12 1.875-18 1.875-13.25 0-25.625-3-37.126-9-11.5-6-20.874-14.25-28.124-24.75-8.25 20-22.125 34.375-41.626 43.125-.25 2.5-.375 4.75-.375 6.75 0 17.75 6.25 32.875 18.75 45.375s27.563 18.75 45.188 18.75z"/>
    </g>
</svg>
