<svg xmlns="http://www.w3.org/2000/svg" width="170" height="240" viewBox="0 0 170 240">
    <g fill="none" fill-rule="evenodd">
        <rect width="240" height="170" x="-35" y="35" fill="#C1C7D4" rx="6" transform="matrix(0 1 1 0 -35 35)"/>
        <rect width="218" height="148" x="-24" y="46" stroke="#D6DAE2" stroke-width="2" rx="4" transform="matrix(0 1 1 0 -35 35)"/>
        <rect width="70" height="60" x="50" y="50" fill="#D6DAE2" rx="4" transform="matrix(0 1 1 0 5 -5)"/>
        <path fill="#2C3644" d="M85 91c-3.328 0-6.164-1.172-8.508-3.516-2.344-2.343-3.515-5.18-3.515-8.507 0-3.329 1.171-6.164 3.515-8.508 2.344-2.344 5.18-3.516 8.508-3.516 3.328 0 6.164 1.172 8.508 3.516 2.344 2.344 3.515 5.18 3.515 8.508 0 3.328-1.171 6.164-3.515 8.507C91.164 89.828 88.328 91 85 91zm0 6.047c2.953 0 6.21.422 9.773 1.266 3.563.843 6.82 2.226 9.774 4.148 2.953 1.922 4.43 4.101 4.43 6.539v6.047H61.023V109c0-2.438 1.477-4.617 4.43-6.54 2.953-1.92 6.211-3.304 9.774-4.147 3.562-.844 6.82-1.266 9.773-1.266z"/>
        <path fill="#D6DAE2" d="M55 129v62a4 4 0 0 0 4 4h52a4 4 0 0 0 4-4v-62a4 4 0 0 0-4-4H59a4 4 0 0 0-4 4z"/>
        <path fill="#2C3644" d="M92.543 184.5c-.096 0-.216-.024-.312-.048-3.817-1.051-6.314-2.46-8.93-5.017a17.39 17.39 0 0 1-5.21-12.471c0-3.87 3.313-7.024 7.394-7.024 4.081 0 7.394 3.154 7.394 7.024 0 2.556 2.233 4.635 4.994 4.635 2.76 0 4.993-2.079 4.993-4.635 0-9.007-7.802-16.318-17.405-16.318-6.818 0-13.06 3.775-15.868 9.628-.936 1.936-1.416 4.205-1.416 6.69 0 1.863.168 4.802 1.608 8.625a1.164 1.164 0 0 1-.696 1.529 1.192 1.192 0 0 1-1.537-.693c-1.176-3.13-1.752-6.236-1.752-9.461 0-2.867.552-5.471 1.632-7.74 3.193-6.666 10.275-10.99 18.03-10.99 10.922 0 19.805 8.385 19.805 18.706 0 3.87-3.313 7.024-7.394 7.024-4.081 0-7.394-3.154-7.394-7.024 0-2.556-2.233-4.635-4.994-4.635-2.76 0-4.993 2.079-4.993 4.635 0 4.085 1.584 7.908 4.49 10.775 2.28 2.246 4.464 3.488 7.85 4.42.647.167 1.008.836.84 1.457a1.17 1.17 0 0 1-1.129.908m4.547-5.333c-2.857 0-5.378-.72-7.442-2.136-3.578-2.423-5.715-6.357-5.715-10.531 0-.672.529-1.2 1.2-1.2.673 0 1.201.528 1.201 1.2 0 3.382 1.729 6.573 4.658 8.54 1.705 1.152 3.698 1.704 6.098 1.704.577 0 1.535-.072 2.497-.24a1.197 1.197 0 0 1 1.393.983 1.196 1.196 0 0 1-.984 1.392c-1.371.264-2.572.288-2.906.288m-16.857 4.266c-.306 0-.613-.119-.825-.357-2.049-2.076-3.156-3.412-4.735-6.298-1.625-2.934-2.473-6.513-2.473-10.353 0-7.085 5.984-12.858 13.333-12.858 7.35 0 13.334 5.773 13.334 12.858 0 .668-.519 1.192-1.178 1.192-.66 0-1.178-.524-1.178-1.192 0-5.773-4.923-10.473-10.978-10.473-6.054 0-10.977 4.7-10.977 10.473 0 3.435.754 6.607 2.19 9.184 1.508 2.743 2.545 3.912 4.359 5.773a1.236 1.236 0 0 1 0 1.694c-.26.238-.566.357-.872.357m-15.373-28.8c-.237 0-.475-.072-.688-.218a1.226 1.226 0 0 1-.284-1.697c2.347-3.394 5.334-6.06 8.89-7.927 7.445-3.927 16.976-3.952 24.445-.024 3.556 1.866 6.543 4.509 8.89 7.878.377.534.261 1.31-.284 1.697a1.166 1.166 0 0 1-1.66-.29c-2.133-3.055-4.836-5.455-8.037-7.128-6.805-3.563-15.506-3.563-22.287.025-3.224 1.696-5.927 4.12-8.06 7.175-.19.34-.546.51-.925.51M98.748 142.9c-.187 0-.376-.052-.542-.155-4.548-2.566-8.48-3.654-13.194-3.654-4.69 0-9.143 1.218-13.194 3.654-.568.336-1.279.103-1.61-.519-.308-.622-.095-1.425.473-1.762 4.406-2.617 9.238-3.964 14.331-3.964 5.043 0 9.451 1.218 14.284 3.938.592.337.805 1.115.497 1.736-.213.467-.616.726-1.045.726"/>
        <path fill="#D6DAE2" d="M25 100h6v40h-6zM37 80h6v80h-6zM133 80h6v80h-6z"/>
    </g>
</svg>
